<svg width="130" height="89" viewBox="0 0 130 89" fill="none" xmlns="http://www.w3.org/2000/svg">
<path d="M71.4741 81.8784C71.4741 82.9243 71.1768 83.7241 70.582 84.2778C69.9941 84.8247 69.1602 85.0981 68.0801 85.0981C67.0068 85.0981 66.1455 84.7393 65.4961 84.0215C64.8535 83.2969 64.5322 82.3125 64.5322 81.0684V79.9404C64.5322 78.7373 64.8569 77.7769 65.5063 77.0591C66.1626 76.3345 67.0205 75.9722 68.0801 75.9722C69.1738 75.9722 70.0146 76.2524 70.6025 76.813C71.1904 77.3735 71.4844 78.1631 71.4844 79.1816H69.9873C69.9873 78.5049 69.8232 78.0229 69.4951 77.7358C69.1738 77.4419 68.7021 77.2949 68.0801 77.2949C67.4375 77.2949 66.9316 77.5308 66.5625 78.0024C66.1934 78.4741 66.0088 79.1304 66.0088 79.9712V81.1299C66.0088 81.9502 66.1934 82.5962 66.5625 83.0679C66.9316 83.5396 67.4375 83.7754 68.0801 83.7754C68.709 83.7754 69.1807 83.6318 69.4951 83.3447C69.8164 83.0576 69.9771 82.5688 69.9771 81.8784H71.4741ZM62.1123 80.5249C62.1123 81.7007 62.3857 82.791 62.9326 83.7959C63.4795 84.7939 64.2212 85.5767 65.1577 86.144C66.1011 86.7114 67.1196 86.9951 68.2134 86.9951C69.3071 86.9951 70.3223 86.7114 71.2588 86.144C72.1953 85.5767 72.937 84.7939 73.4839 83.7959C74.0308 82.791 74.3042 81.7007 74.3042 80.5249C74.3042 79.3628 74.0342 78.2861 73.4941 77.2949C72.9541 76.3037 72.2124 75.5244 71.269 74.957C70.3325 74.3828 69.314 74.0957 68.2134 74.0957C67.1196 74.0957 66.1011 74.3794 65.1577 74.9468C64.2144 75.5073 63.4692 76.2866 62.9224 77.2847C62.3823 78.2827 62.1123 79.3628 62.1123 80.5249ZM60.9331 80.5249C60.9331 79.144 61.251 77.8623 61.8867 76.6797C62.5293 75.4971 63.4146 74.5674 64.5425 73.8906C65.6772 73.207 66.9009 72.8652 68.2134 72.8652C69.5259 72.8652 70.7461 73.207 71.874 73.8906C73.002 74.5674 73.8838 75.4971 74.5195 76.6797C75.1621 77.8623 75.4834 79.144 75.4834 80.5249C75.4834 81.8716 75.1758 83.1328 74.5605 84.3086C73.9453 85.4844 73.0703 86.4312 71.9355 87.1489C70.8076 87.8599 69.5669 88.2153 68.2134 88.2153C66.8667 88.2153 65.626 87.8633 64.4912 87.1592C63.3633 86.4482 62.4883 85.5049 61.8662 84.3291C61.2441 83.1533 60.9331 81.8853 60.9331 80.5249Z" fill="#143260"/>
<path d="M92.7407 88H82.9585V86.6362L88.1265 80.894C88.8921 80.0259 89.4185 79.3218 89.7056 78.7817C89.9995 78.2349 90.1465 77.6709 90.1465 77.0898C90.1465 76.3105 89.9106 75.6714 89.439 75.1724C88.9673 74.6733 88.3384 74.4238 87.5522 74.4238C86.6089 74.4238 85.874 74.6938 85.3477 75.2339C84.8281 75.7671 84.5684 76.5122 84.5684 77.4692H82.6714C82.6714 76.0952 83.1123 74.9844 83.9941 74.1367C84.8828 73.2891 86.0688 72.8652 87.5522 72.8652C88.9399 72.8652 90.0371 73.231 90.8438 73.9624C91.6504 74.687 92.0537 75.6543 92.0537 76.8643C92.0537 78.334 91.1172 80.084 89.2441 82.1143L85.2451 86.4517H92.7407V88Z" fill="#143260"/>
<path d="M104.112 81.6323C104.112 83.854 103.733 85.5049 102.974 86.585C102.215 87.665 101.029 88.2051 99.416 88.2051C97.8232 88.2051 96.644 87.6787 95.8784 86.626C95.1128 85.5664 94.7163 83.9873 94.689 81.8887V79.356C94.689 77.1616 95.0684 75.5312 95.8271 74.4648C96.5859 73.3984 97.7754 72.8652 99.3955 72.8652C101.002 72.8652 102.185 73.3813 102.943 74.4136C103.702 75.439 104.092 77.0249 104.112 79.1714V81.6323ZM102.215 79.0381C102.215 77.4316 101.99 76.2627 101.539 75.5312C101.087 74.793 100.373 74.4238 99.3955 74.4238C98.4248 74.4238 97.7173 74.7896 97.2729 75.521C96.8286 76.2524 96.5996 77.377 96.5859 78.8945V81.9297C96.5859 83.543 96.8184 84.7358 97.2832 85.5083C97.7549 86.2739 98.4658 86.6567 99.416 86.6567C100.353 86.6567 101.046 86.2944 101.498 85.5698C101.956 84.8452 102.195 83.7036 102.215 82.145V79.0381Z" fill="#143260"/>
<path d="M116.325 88H106.542V86.6362L111.71 80.894C112.476 80.0259 113.002 79.3218 113.29 78.7817C113.583 78.2349 113.73 77.6709 113.73 77.0898C113.73 76.3105 113.495 75.6714 113.023 75.1724C112.551 74.6733 111.922 74.4238 111.136 74.4238C110.193 74.4238 109.458 74.6938 108.932 75.2339C108.412 75.7671 108.152 76.5122 108.152 77.4692H106.255C106.255 76.0952 106.696 74.9844 107.578 74.1367C108.467 73.2891 109.653 72.8652 111.136 72.8652C112.524 72.8652 113.621 73.231 114.428 73.9624C115.234 74.687 115.638 75.6543 115.638 76.8643C115.638 78.334 114.701 80.084 112.828 82.1143L108.829 86.4517H116.325V88Z" fill="#143260"/>
<path d="M124.569 88H122.662V75.3569L118.837 76.7617V75.0391L124.271 72.9985H124.569V88Z" fill="#143260"/>
<path d="M57.83 23.4799H52.9V26.91H56.89V29.1399H52.9V35.25H50.01V21.45H58.32L57.83 23.4799Z" fill="#1446A0"/>
<path d="M4.26 35.46C2.84 35.46 1.33 35.14 0.12 34.6L0.24 32.1C1.34 32.76 2.94 33.22 4.13 33.22C5.46 33.22 6.46 32.72 6.46 31.62C6.46 28.88 0 30.5 0 25.45C0 22.94 1.77 21.29 4.98 21.29C6.17 21.29 7.52 21.59 8.33 21.87L8.23 24.17C7.25 23.78 6.17 23.5 5.18 23.5C3.62 23.5 2.79 24.11 2.79 25.09C2.79 27.72 9.27 26.19 9.27 31.26C9.27 34.18 7.07 35.46 4.26 35.46Z" fill="#1446A0"/>
<path d="M16.04 33.24C15.69 33.37 15.32 33.47 14.96 33.47C14.11 33.47 13.87 32.94 13.87 31.99V27.12H16.19V25.17H13.87V21.98L11.1 22.67V25.17H9.52002V27.12H11.1V32.03C11.1 33.33 11.29 34.07 11.8 34.63C12.28 35.13 13.11 35.43 14.09 35.43C15.03 35.43 16.02 35.16 16.6 34.77L16.61 34.67C16.34 34.25 16.15 33.76 16.04 33.24Z" fill="#1446A0"/>
<path d="M37.23 35.25H34.46V29.1C34.46 28.44 34.4 28 34.13 27.63C33.86 27.28 33.42 27.07 32.82 27.07C32.16 27.07 31.69 27.34 31.4 27.71C31.07 28.15 30.99 28.71 30.99 29.47V35.25H28.23V27.12H27.03V25.17H29.88L30.37 26.46C31.04 25.56 32.14 24.99 33.59 24.99C34.78 24.99 35.73 25.32 36.35 25.96C36.99 26.65 37.23 27.52 37.23 28.66V35.25V35.25Z" fill="#1446A0"/>
<path d="M62.66 35.43C59.5 35.43 57.76 33.48 57.76 30.22C57.76 26.96 59.5 24.99 62.66 24.99C65.82 24.99 67.57 26.96 67.57 30.22C67.56 33.48 65.81 35.43 62.66 35.43ZM62.66 26.88C61.37 26.88 60.56 27.77 60.56 30.22C60.56 32.68 61.37 33.55 62.66 33.55C63.95 33.55 64.77 32.67 64.77 30.22C64.76 27.77 63.95 26.88 62.66 26.88Z" fill="#1446A0"/>
<path d="M74.6099 27.23C74.4099 27.19 74.0599 27.17 73.8099 27.17C73.1999 27.17 72.7099 27.34 72.3799 27.74C71.9799 28.21 71.8699 28.84 71.8699 29.71V35.26H69.1099V27.13H67.8999V25.18H70.7899L71.2899 26.59C71.7799 25.6 72.8099 24.99 73.9699 24.99C74.2099 24.99 74.4299 25.01 74.6099 25.05V27.23Z" fill="#1446A0"/>
<path d="M27.0301 33.36C26.8301 33.46 26.5401 33.56 26.3401 33.56C26.0101 33.56 25.8601 33.37 25.8601 32.93V28.63C25.8601 27.47 25.5901 26.64 24.9601 26.05C24.2001 25.32 23.0301 24.99 21.4501 24.99C20.2001 24.99 18.9501 25.22 18.0001 25.66V27.53C18.9801 27.04 20.0401 26.79 21.0201 26.79C21.8301 26.79 22.3901 26.98 22.7001 27.33C23.0101 27.69 23.0901 28.1 23.0901 28.76V29.04C22.5701 28.85 21.7801 28.71 21.0501 28.71C18.6801 28.71 17.1001 29.87 17.1001 32.12C17.1001 34.28 18.5301 35.46 20.6801 35.46C21.8001 35.46 22.8701 35.05 23.4001 34.34C23.6301 35.05 24.3401 35.4 25.1901 35.4C25.9301 35.4 26.6101 35.18 27.0201 34.89V33.36H27.0301ZM23.1001 31.9C23.1001 32.45 22.9601 32.88 22.6801 33.17C22.4101 33.47 21.9701 33.65 21.4701 33.65C20.5101 33.65 19.8901 33.06 19.8901 31.96C19.8901 30.98 20.4501 30.26 21.6601 30.26C22.1801 30.26 22.7801 30.38 23.0901 30.5V31.9H23.1001Z" fill="#1446A0"/>
<path d="M49.01 33.38C48.82 33.47 48.56 33.55 48.38 33.55C48.05 33.55 47.9 33.36 47.9 32.92V21.47H43.93V23.43H45.14V25.09C44.79 25.03 44.37 24.99 43.98 24.99C40.53 24.99 38.49 27.25 38.49 30.67C38.49 33.7 40.07 35.44 42.65 35.44C43.79 35.44 44.79 35 45.39 34.3C45.68 35.07 46.43 35.39 47.22 35.39C47.91 35.39 48.56 35.18 49.01 34.9V33.38V33.38ZM45.14 31.28C45.14 31.99 45.04 32.47 44.72 32.86C44.45 33.21 43.95 33.44 43.33 33.44C41.9 33.44 41.29 32.19 41.29 30.53C41.29 28.12 42.33 26.73 44.18 26.73C44.55 26.73 44.91 26.77 45.14 26.83V31.28Z" fill="#1446A0"/>
<path d="M14.16 56.58L13.91 60.41H0.25V40.71H13.44V44.54H5.69V48.52H12.04V52.32H5.69V56.58H14.16V56.58Z" fill="#143260"/>
<path d="M30.12 45.3101L24.52 60.4001H19.73L14.22 45.3101H19.39L21.79 52.7801C22.04 53.5601 22.32 54.5501 22.32 55.3901C22.38 54.5501 22.6 53.6201 22.88 52.8101L25.34 45.3101H30.12Z" fill="#143260"/>
<path d="M37.55 60.69C32.57 60.69 29.8 57.58 29.8 52.88C29.8 48.18 32.57 45.04 37.55 45.04C42.53 45.04 45.3 48.18 45.3 52.88C45.3 57.57 42.5 60.69 37.55 60.69ZM37.55 48.52C35.62 48.52 35.09 50.08 35.09 52.88C35.09 55.68 35.62 57.21 37.55 57.21C39.48 57.21 40.01 55.69 40.01 52.88C40.01 50.07 39.48 48.52 37.55 48.52Z" fill="#143260"/>
<path d="M53.89 59.7201C53.11 60.2501 51.8 60.6501 50.53 60.6501C48.91 60.6501 47.92 60.2101 47.36 59.3101C46.99 58.7201 46.83 58.0101 46.83 56.7901V42.7601H44.99V39.1201H52.05V56.4201C52.05 56.9801 52.3 57.2601 52.77 57.2601C53.21 57.2601 53.8 57.0401 54.05 56.8601L53.89 59.7201Z" fill="#143260"/>
<path d="M71.1901 59.66C70.2901 60.25 69.0401 60.6501 67.8001 60.6501C66.5201 60.6501 65.28 60.0901 64.78 58.9701C63.75 59.9701 61.9201 60.68 60.2401 60.68C58.2501 60.68 56.57 60.0001 55.73 58.5601C55.26 57.7801 55.05 56.88 55.05 55.26V45.3H60.28V54.4501C60.28 55.0701 60.3101 55.6 60.5601 56.01C60.8101 56.45 61.3701 56.7901 62.0801 56.7901C62.8901 56.7901 63.45 56.42 63.76 55.92C64.1 55.42 64.1601 54.7101 64.1601 54.0201V45.3101H69.39V56.42C69.39 56.98 69.6401 57.26 70.1101 57.26C70.5401 57.26 71.14 57.0401 71.39 56.8601L71.1901 59.66Z" fill="#143260"/>
<path d="M82.49 59.4701C81.49 60.1801 79.53 60.68 77.95 60.68C76.46 60.68 75.18 60.3101 74.4 59.5601C73.47 58.6601 73.16 57.41 73.16 55.14V48.9501H70.7V45.3101H73.16V41.73L78.39 40.55V45.3101H81.78V48.9501H78.39V55.21C78.39 56.33 78.67 57.01 79.76 57.01C80.63 57.01 81.75 56.64 82.62 56.14L82.49 59.4701Z" fill="#143260"/>
<path d="M91.91 59.7201C91.13 60.2501 89.82 60.6501 88.55 60.6501C86.93 60.6501 85.94 60.2101 85.38 59.3101C85.01 58.7201 84.85 58.0101 84.85 56.7901V48.9501H83.01V45.3101H90.07V56.4201C90.07 56.9801 90.32 57.2601 90.79 57.2601C91.23 57.2601 91.82 57.0401 92.07 56.8601L91.91 59.7201ZM87.31 44.1301C85.76 44.1301 84.54 42.9501 84.54 41.3301C84.54 39.7401 85.79 38.5601 87.31 38.5601C88.84 38.5601 90.11 39.7101 90.11 41.3301C90.11 42.9501 88.83 44.1301 87.31 44.1301Z" fill="#143260"/>
<path d="M100.1 60.69C95.1201 60.69 92.3501 57.58 92.3501 52.88C92.3501 48.18 95.1201 45.04 100.1 45.04C105.08 45.04 107.85 48.18 107.85 52.88C107.84 57.57 105.04 60.69 100.1 60.69ZM100.1 48.52C98.1701 48.52 97.6401 50.08 97.6401 52.88C97.6401 55.68 98.1701 57.21 100.1 57.21C102.03 57.21 102.56 55.69 102.56 52.88C102.55 50.07 102.03 48.52 100.1 48.52Z" fill="#143260"/>
<path d="M123.93 60.4H118.7V51.25C118.7 50.63 118.67 50.1 118.42 49.7C118.17 49.26 117.61 48.92 116.9 48.92C116.09 48.92 115.53 49.29 115.22 49.79C114.88 50.29 114.82 51 114.82 51.69V60.4H109.59V48.95H107.75V45.31H112.67L113.6 47.43C114.66 45.91 116.65 45.03 118.73 45.03C120.72 45.03 122.4 45.72 123.24 47.15C123.71 47.93 123.92 48.83 123.92 50.45V60.4H123.93Z" fill="#143260"/>
<path d="M128.79 23.17C128.75 23.21 128.71 23.26 128.67 23.32C128.63 23.37 128.6 23.42 128.56 23.47C128.52 23.54 128.48 23.6 128.43 23.66C128.39 23.71 128.36 23.78 128.34 23.83C128.11 24.12 127.81 24.53 127.58 24.8C127.51 24.88 127.45 24.95 127.42 25C127.4 25.01 127.25 25.2 127.2 25.24C127 25.51 126.8 25.75 126.54 26.03C126.6 25.96 126.68 25.86 126.69 25.83C126.64 25.88 126.61 25.92 126.57 25.96C126.51 26.05 126.44 26.12 126.37 26.19C126.34 26.23 126.31 26.26 126.27 26.3C126.27 26.3 126.26 26.31 126.25 26.33C126.19 26.39 126.13 26.45 126.07 26.51C126.06 26.51 126.05 26.52 126.02 26.55C126.02 26.56 126 26.59 125.97 26.61C125.93 26.65 125.9 26.68 125.86 26.72H125.87C125.83 26.76 125.8 26.8 125.75 26.84C125.74 26.85 125.73 26.87 125.7 26.89C125.63 26.96 125.57 27.03 125.53 27.08L125.61 27.04C125.49 27.17 125.15 27.47 125.06 27.53C124.8 27.79 124.5 28.1 124.25 28.28C124.12 28.4 123.99 28.52 123.86 28.62C123.71 28.74 123.57 28.85 123.44 28.95L123.55 28.91C123.32 29.05 122.88 29.49 122.89 29.41C122.74 29.56 122.33 29.84 122.4 29.83C121.98 30.1 121.49 30.44 121.03 30.75C120.68 30.97 120.34 31.16 120.08 31.29C120 31.33 119.92 31.38 119.84 31.42C119.73 31.49 119.72 31.52 119.71 31.53C119.47 31.66 119.29 31.76 119.39 31.66C119.31 31.71 119.21 31.75 119.13 31.79C118.82 31.97 118.69 32.08 118.08 32.37C118.11 32.33 118.04 32.35 117.82 32.47L117.4 32.71C116.88 32.91 117.08 32.78 117.06 32.75C116.78 32.86 116.44 32.99 116.32 33.06L116.02 33.13C116.02 33.13 116.01 33.13 116.01 33.14C116.1 33.13 115.88 33.21 115.72 33.27L115.74 33.26C115.69 33.26 115.36 33.39 115.2 33.46C115.25 33.47 115.58 33.36 115.76 33.3C115.62 33.37 115.4 33.45 115.21 33.52C115.21 33.49 114.71 33.63 114.49 33.68C114.22 33.74 114.2 33.79 114.12 33.81C114.11 33.8 113.88 33.87 113.84 33.87C113.85 33.86 113.86 33.85 113.89 33.84C113.98 33.82 114.1 33.8 114.25 33.75C114.07 33.79 114.08 33.75 113.73 33.87C113.46 33.96 113.82 33.92 113.29 34.03C113.42 33.99 113.44 33.97 113.54 33.93L113.05 34.04L113.04 34.08C112.97 34.09 113.02 34.07 112.99 34.08C112.85 34.13 112.24 34.21 112.13 34.26C111.88 34.3 111.6 34.32 111.36 34.36L111.4 34.35C111.1 34.37 110.72 34.46 110.48 34.5L110.49 34.49C110.33 34.5 109.95 34.53 109.75 34.55C109.34 34.55 109.61 34.43 109.16 34.5C108.75 34.53 108.52 34.59 108.69 34.6C107.95 34.65 107.1 34.61 106.41 34.53C106.3 34.54 106.37 34.55 106.15 34.54C105.6 34.46 105.03 34.37 104.49 34.29C103.96 34.16 103.45 34.02 103.04 33.88C103.12 33.9 103.16 33.9 103.18 33.9C103.16 33.88 103.07 33.85 103.07 33.83C102.81 33.79 102.78 33.71 102.68 33.73C102.69 33.76 102.67 33.78 102.79 33.82C102.21 33.64 101.44 33.35 101.12 33.18C101.2 33.23 101.09 33.19 100.97 33.14C101.03 33.12 100.61 32.9 100.27 32.75H100.21L100.01 32.62C99.8899 32.55 99.8299 32.62 99.5399 32.4C99.5299 32.38 99.5199 32.36 99.4699 32.32C99.1399 32.14 98.6699 31.89 98.3399 31.65L98.0999 31.41C98.0199 31.35 97.8899 31.26 97.8599 31.26C97.8599 31.27 97.8699 31.27 97.8699 31.28C97.3799 30.87 97.0399 30.63 96.9199 30.44C95.9699 29.71 94.7599 28.42 93.9999 27.23L94.0399 27.25C93.8399 26.93 93.8799 27.12 93.7599 26.88C93.8399 26.98 93.6499 26.61 93.8199 26.85C93.5699 26.38 93.4399 26.27 93.2499 25.98C93.1999 25.95 93.4099 26.22 93.3399 26.17C93.3099 26.12 92.9799 25.52 92.9099 25.46C92.8699 25.33 92.9399 25.41 92.9899 25.47L92.8299 25.18C92.6999 24.8 93.3099 25.96 93.1799 25.56C93.1699 25.56 93.0399 25.29 93.0399 25.29C93.0299 25.26 93.0299 25.25 93.0299 25.25C93.0299 25.25 93.0399 25.25 93.0399 25.26C93.0299 25.25 93.0299 25.24 93.0299 25.24L93.0499 25.25C93.0299 25.19 92.9999 25.13 92.9699 25.07C92.8799 24.93 92.8199 24.88 92.8899 25.07C92.5899 24.46 92.6699 24.83 92.3599 24.15C92.2999 23.96 92.6199 24.69 92.5899 24.54C92.5299 24.38 92.4499 24.22 92.3799 24.07C92.3199 23.93 92.2599 23.8 92.2199 23.67C92.2899 23.91 92.1599 23.67 92.0899 23.47C92.0699 23.39 92.0599 23.36 92.0599 23.35C92.0699 23.36 92.0799 23.38 92.0999 23.39C92.0899 23.36 92.0799 23.3 92.0399 23.19C92.0099 23.15 91.9199 22.95 91.8899 22.9C91.8899 22.91 91.8999 22.96 91.9299 23.06C91.8099 22.9 91.7499 22.54 91.6499 22.27C91.6499 22.09 91.8799 22.77 91.7499 22.2C91.7399 22.3 91.5299 21.51 91.5499 21.82C91.4999 21.6 91.5299 21.57 91.5899 21.72C91.5699 21.56 91.5099 21.37 91.4499 21.22C91.4299 21.2 91.4099 21.17 91.3899 21.15C91.2799 21 91.1499 20.83 91.0699 20.67C90.9099 20.51 91.3999 21.29 90.9499 20.69C91.0499 20.76 90.4599 19.91 90.7399 20.2C90.5599 19.96 90.5199 19.96 90.6299 20.15C90.3599 19.82 90.1699 19.25 90.0299 19.17L89.9899 19.02C89.9199 18.91 89.8099 18.77 89.6899 18.58C89.5199 18.25 89.2299 17.49 89.1899 17.54C89.1699 17.48 89.0699 17.27 88.9899 17.1C88.9499 17 88.9299 16.91 88.9299 16.89C88.9399 16.88 88.9499 16.9 88.9699 16.94C89.0299 17.07 89.0699 17.17 89.1099 17.25C89.0399 17.08 88.9899 16.92 88.9499 16.77L88.9099 16.73C88.8599 16.59 88.7499 16.29 88.6999 16.13C88.6999 16.16 88.6699 16.1 88.6299 16L88.5999 15.82C88.3899 15.17 88.4699 15.61 88.3099 15.11L88.4099 15.52C88.3799 15.4 88.2799 15.18 88.1999 14.85C88.1899 14.7 88.1599 14.47 88.1499 14.35C88.0699 14.01 88.0599 14.14 88.0299 13.92C88.0299 13.96 88.0399 14.01 88.0399 14.05C88.0699 14.18 88.0899 14.3 88.0899 14.3C88.0899 14.3 88.0899 14.3 88.0899 14.31C88.0499 14.25 87.9299 13.9 87.8399 13.46C87.7899 13.15 87.7299 12.68 87.8199 13.02C87.7699 12.78 87.6999 12.52 87.7199 12.71C87.6299 12.11 87.7599 12.78 87.7099 12.26C87.6699 12.04 87.5499 11.4 87.4699 11C87.4699 11 87.4699 11.14 87.4699 11.27C87.4799 11.41 87.4799 11.55 87.4799 11.55L87.4299 11.18C87.4499 11.65 87.3699 10.94 87.3599 11.22C87.3199 10.97 87.3399 10.67 87.3399 10.42C87.4399 11.14 87.3999 9.6 87.4699 9.81C87.4799 8.82 87.3199 9.19 87.4599 8.15C87.4699 8.3 87.5099 7.99 87.5099 8.24C87.5299 7.89 87.5599 7.94 87.6199 7.33C87.5299 7.86 87.6299 6.75 87.4899 7.52C87.5099 7.47 87.4499 7.95 87.4499 8.07C87.4499 7.81 87.3599 8.12 87.4399 7.49C87.4899 7.1 87.5599 6.58 87.5899 6.66C87.6199 6.68 87.5099 7.24 87.5799 7C87.6799 6.24 87.6499 6.1 87.7799 5.8C87.6799 6.27 87.7099 6.4 87.7399 6.39C87.7399 6.39 87.7499 6.25 87.7899 6.12C87.8099 6.01 87.8299 5.91 87.8399 5.86L87.7999 5.94C87.9599 5.05 87.8999 5.69 88.0599 4.83L88.1199 4.42C87.9999 4.61 87.8699 5.67 87.8199 5.51C87.9299 4.95 87.9999 4.77 88.1299 4.25C88.0899 4.37 88.0499 4.52 88.0099 4.63C88.0599 4.43 88.0199 4.21 88.2999 3.44C88.4499 3.05 88.3499 3.34 88.3799 3.34C88.6699 2.48 88.7999 2.23 89.0199 1.7C88.9999 1.7 89.0599 1.54 89.2299 1.19C89.2499 1.15 89.2699 1.11 89.2799 1.08C89.2699 1.05 89.2299 1.04 89.1999 1.02C89.1599 0.99 89.1199 0.97 89.0999 0.97C89.0999 1 89.1099 1.01 89.1299 1.02C89.1599 1.05 89.3099 1.08 89.1799 1.22C89.0399 1.55 88.9099 1.83 88.7599 2.23C88.5999 2.61 88.4799 3 88.3999 3.15C88.4499 2.81 88.1799 3.84 88.0799 4.01C88.2699 3.3 88.2299 3.32 88.2299 3.2C88.2899 3 88.3699 2.82 88.4099 2.7C88.4699 2.63 88.3899 2.89 88.4199 2.91C88.5399 2.52 88.6999 2.14 88.8399 1.81C88.9199 1.63 88.9999 1.46 89.0799 1.3C89.0999 1.25 89.1299 1.2 89.1499 1.16C89.1599 1.15 89.1699 1.14 89.1699 1.12L89.1399 1.1L89.0699 1.06C88.9999 1 88.9199 0.95 88.8499 0.9C88.7099 0.82 88.6699 0.82 88.6899 0.84C88.6999 0.86 88.7499 0.9 88.8999 1C88.6499 0.84 88.3799 0.69 88.1199 0.52C88.0899 0.5 88.0599 0.48 88.0299 0.47C88.0799 0.45 88.0199 0.43 88.0199 0.41C88.0099 0.42 87.9899 0.44 87.9799 0.46C87.9599 0.41 87.9599 0.48 87.9299 0.46C87.9099 0.41 87.8699 0.37 87.8299 0.33C87.7599 0.34 87.6999 0.25 87.6499 0.22C87.6099 0.23 87.5999 0.27 87.5699 0.27C87.5399 0.25 87.6199 0.24 87.5599 0.23L87.5499 0.24C87.5399 0.22 87.4699 0.21 87.4699 0.17L87.4599 0.2C87.4499 0.2 87.4499 0.18 87.4399 0.18C87.4299 0.19 87.4199 0.2 87.4199 0.22C87.3999 0.23 87.3799 0.22 87.3699 0.2C87.3599 0.19 87.3399 0.17 87.3299 0.16L87.3699 0.15C87.3299 0.1 87.2699 0.1 87.2299 0.06L87.2099 0.08L87.1899 0.05C87.1799 0.08 87.1599 0.08 87.1499 0.07V0.08L87.0399 0C87.0399 0 87.0199 0.02 86.9899 0.06C86.9799 0.08 86.9699 0.09 86.9499 0.11L86.9399 0.1C86.9399 0.13 86.9199 0.13 86.8999 0.11L86.8899 0.15L86.8699 0.13C86.8399 0.18 86.7899 0.2 86.7699 0.26L86.8099 0.27C86.7899 0.29 86.7999 0.35 86.7499 0.35C86.7499 0.33 86.7299 0.33 86.7199 0.32C86.7099 0.33 86.7199 0.34 86.7099 0.35L86.6799 0.3C86.7199 0.36 86.6599 0.39 86.6399 0.41C86.5899 0.44 86.6699 0.42 86.6499 0.45C86.6299 0.47 86.5999 0.42 86.5599 0.43C86.5199 0.47 86.5099 0.58 86.4299 0.6C86.4099 0.65 86.3899 0.7 86.3899 0.75C86.3699 0.79 86.3499 0.71 86.3399 0.77C86.3099 0.74 86.2699 0.74 86.2599 0.71C86.2399 0.72 86.2099 0.71 86.2199 0.74C86.1999 0.74 86.1999 0.71 86.1799 0.72C86.1899 0.75 86.2399 0.75 86.2699 0.73C86.3299 0.74 86.2199 0.8 86.2899 0.8C86.2699 0.82 86.2499 0.85 86.2199 0.87L86.1099 1.03C85.9899 1.21 85.8699 1.38 85.7599 1.56C85.8699 1.36 85.8699 1.32 85.7199 1.51C85.4999 1.92 85.0999 2.62 84.7099 3.36C84.7499 3.36 84.8699 3.12 84.8599 3.21C84.8099 3.33 84.7299 3.51 84.6399 3.69C84.5499 3.78 84.5099 3.72 84.1899 4.4C84.1999 4.36 84.2099 4.29 84.2399 4.22C84.0299 4.67 83.8999 4.8 83.8399 4.96C83.8799 4.84 83.9499 4.69 83.9999 4.58C83.7599 5.07 83.7299 5.27 83.4999 5.81C83.3799 5.93 83.8499 4.94 83.8899 4.73L83.6799 5.1C83.3399 5.94 83.6199 5.34 83.2899 6.21L83.2999 6.09L83.1199 6.64C83.1399 6.66 83.2199 6.56 83.3799 6.09C83.3399 6.42 83.2199 6.52 82.9999 7.27C82.9899 7.3 82.9899 7.32 82.9899 7.33C83.0099 7.27 83.0899 6.95 83.1299 6.95C83.1799 6.88 83.0299 7.4 82.9199 7.78C82.7399 8.39 82.7899 8.08 82.6899 8.33C82.7199 8.22 82.8399 7.78 82.8599 7.78C83.0499 7.02 82.6799 8.1 82.8199 7.56C82.6399 8.11 82.6599 8.13 82.6099 8.4C82.6399 8.33 82.6199 8.52 82.6599 8.41C82.5299 9.47 82.4099 9.05 82.2399 10.05C82.3399 9.85 82.1099 11.4 82.2899 10.68C82.2599 10.92 82.2199 11.22 82.1999 11.47C82.1899 11.2 82.1199 11.91 82.1299 11.43L82.0899 11.79L82.0999 11.23C82.0299 11.64 81.9199 12.3 81.8799 12.53C81.8699 13.06 81.9299 12.37 81.9099 12.99C81.8999 12.8 81.8699 13.07 81.8599 13.32C81.8999 12.96 81.9099 13.45 81.9099 13.78C81.8699 14.32 81.8899 14.76 81.8699 14.68C81.8699 14.68 81.8399 14.48 81.8299 14.33C81.8399 14.49 81.8099 14.41 81.8399 14.74C81.8599 14.86 81.9199 15.09 81.9599 15.24C81.9899 15.59 81.9599 15.84 81.9799 15.95L81.9299 15.41C81.9799 16.13 81.8799 15.57 81.9299 16.31L81.9699 16.5C81.9699 16.61 81.9699 16.68 81.9499 16.65C81.9799 16.83 82.0299 17.14 82.0699 17.29L82.0499 17.34C82.1099 17.64 82.2199 18.03 82.2299 18.4C82.2399 18.1 82.1799 18.03 82.1199 17.5C82.1099 17.17 82.2399 18.01 82.2599 18.13C82.2099 18.1 82.3499 18.93 82.4499 19.28C82.4899 19.5 82.5199 19.68 82.5399 19.82L82.6099 19.95C82.5699 20.1 82.8099 20.67 82.8899 21.08C82.8199 20.88 82.7899 20.92 82.8599 21.21C82.8399 21.01 82.8899 21.16 82.9599 21.35C83.0399 21.53 83.1399 21.75 83.1399 21.69C83.3799 22.41 83.0099 21.55 83.0499 21.77C83.2199 22.11 83.3199 22.57 83.4599 22.79C83.2799 22.27 83.5199 22.86 83.5799 22.96C83.6299 23.11 83.6599 23.18 83.6599 23.22C83.6399 23.2 83.6199 23.16 83.6199 23.17C83.6199 23.18 83.6299 23.22 83.6599 23.33C83.7499 23.58 83.9499 23.86 83.8399 23.6C83.9999 23.94 84.2199 24.3 84.3699 24.69C84.4099 24.84 84.1299 24.25 84.0799 24.15C84.0799 24.16 84.0799 24.17 84.0899 24.18C84.4899 25.03 84.3799 24.6 84.7499 25.31C84.6799 25.13 84.7599 25.22 84.8799 25.4C84.9199 25.48 84.9699 25.58 85.0099 25.65H84.9999C84.9599 25.59 84.9299 25.57 84.9799 25.66L85.1899 25.99C85.3099 26.24 85.1399 26 84.9699 25.77C84.7799 25.53 84.6499 25.27 84.7399 25.52C84.7399 25.54 84.9199 25.8 84.9599 25.87C84.8899 25.8 84.8099 25.73 84.8799 25.87C84.9799 25.94 85.4099 26.71 85.4599 26.78C85.5299 26.83 85.3299 26.56 85.3299 26.53C85.3299 26.53 85.3299 26.53 85.3399 26.53C85.5899 26.91 85.7299 27.07 86.0899 27.65C85.8399 27.36 86.1399 27.79 86.0299 27.68C86.2199 27.97 86.1299 27.74 86.4099 28.15L86.3599 28.11C86.6299 28.48 86.9199 28.87 87.2199 29.26C87.5199 29.64 87.8799 30 88.2199 30.37C88.8699 31.12 89.6299 31.71 90.2299 32.21C90.3999 32.43 90.8199 32.76 91.4599 33.26C91.4099 33.21 91.6399 33.35 91.7799 33.46L92.0999 33.75C92.5099 34.1 93.1499 34.39 93.5699 34.64C93.6399 34.69 93.6599 34.71 93.6699 34.74C94.0599 35.01 94.0999 34.97 94.2599 35.05C94.2599 35.06 94.5199 35.22 94.5199 35.22H94.5899C95.0299 35.42 95.5899 35.69 95.5099 35.71C95.6099 35.75 95.7199 35.8 95.7299 35.8C95.7199 35.79 95.7099 35.77 95.6799 35.76C95.8999 35.86 96.2599 36.09 96.6899 36.23C97.1499 36.39 97.6499 36.57 98.0599 36.71C97.6899 36.56 97.7299 36.56 97.6999 36.52C97.8299 36.51 97.8799 36.59 98.1999 36.68C98.2099 36.69 98.3099 36.74 98.3399 36.77C98.3299 36.77 98.2799 36.76 98.1599 36.72C98.4099 36.84 98.7099 36.93 99.0299 37.02C99.3499 37.1 99.6899 37.19 100.03 37.28C100.72 37.48 101.47 37.56 102.17 37.67C102.46 37.71 102.37 37.68 102.51 37.7C102.73 37.74 102.96 37.8 103.2 37.82C103.45 37.83 103.7 37.84 103.95 37.86C104.46 37.89 104.98 37.9 105.46 37.93C105.24 37.91 105.54 37.86 106.08 37.84C106.66 37.79 106.31 37.89 106.85 37.9C107.12 37.88 107.61 37.83 107.81 37.82L107.79 37.83C108.11 37.78 108.62 37.74 109 37.7C109.29 37.66 109.63 37.64 109.94 37.59C110.09 37.55 110.88 37.4 111.06 37.34C111.1 37.33 111.04 37.35 111.13 37.34L111.15 37.3C111.15 37.3 111.31 37.28 111.47 37.25C111.59 37.23 111.71 37.21 111.77 37.2C111.65 37.24 111.62 37.27 111.45 37.31C112.13 37.17 111.67 37.23 112.02 37.12C112.49 36.97 112.47 37.01 112.7 36.97C112.51 37.04 112.35 37.05 112.24 37.09C112.22 37.1 112.19 37.11 112.19 37.12C112.26 37.11 112.54 37.04 112.55 37.05C112.65 37.02 112.68 36.98 113.03 36.89C113.32 36.81 113.95 36.6 113.95 36.63C114.16 36.56 114.4 36.47 114.57 36.39C114.35 36.47 114.01 36.57 113.94 36.57C114.16 36.5 114.56 36.33 114.64 36.32L114.62 36.33C114.78 36.27 114.98 36.2 115.03 36.17H115.01C115.02 36.17 115.02 36.17 115.02 36.16L115.4 36.06C115.56 35.97 115.99 35.77 116.35 35.61C116.38 35.64 116.11 35.81 116.78 35.51L117.33 35.2C117.63 35.05 117.71 35.02 117.67 35.06C118.43 34.65 118.6 34.49 118.97 34.24C119.09 34.17 119.21 34.11 119.32 34.03C119.16 34.17 119.4 34.02 119.71 33.83C119.72 33.82 119.72 33.81 119.75 33.79C119.68 33.84 119.59 33.91 119.44 33.98C119.43 33.98 119.43 33.98 119.43 33.98C119.45 33.96 119.5 33.92 119.56 33.88C119.74 33.77 119.9 33.66 120.08 33.55C120.83 33.11 122.09 32.06 122.97 31.27C122.91 31.27 123.38 30.87 123.56 30.67C123.56 30.74 124.07 30.14 124.32 29.9L124.21 29.97C124.48 29.68 124.81 29.32 125.13 28.94C125.43 28.64 125.79 28.14 126.08 27.74C126.2 27.61 126.54 27.2 126.66 27.01L126.58 27.08C126.62 27.01 126.69 26.91 126.76 26.81C126.8 26.76 126.83 26.73 126.83 26.71C126.89 26.62 126.95 26.53 127 26.46C126.98 26.49 126.96 26.52 126.94 26.54C126.98 26.48 127.02 26.43 127.06 26.37C127.08 26.33 127.1 26.3 127.1 26.3C127.14 26.23 127.15 26.22 127.14 26.26C127.2 26.17 127.25 26.09 127.3 26.01C127.31 25.99 127.32 25.98 127.32 25.98C127.33 25.96 127.34 25.95 127.36 25.93C127.46 25.77 127.55 25.62 127.63 25.46C127.62 25.48 127.61 25.49 127.59 25.51C127.63 25.44 127.68 25.37 127.74 25.27C127.73 25.31 127.65 25.45 127.59 25.56C127.87 25.11 128.08 24.72 128.27 24.32C128.34 24.24 128.52 23.82 128.49 23.94C128.52 23.88 128.58 23.77 128.63 23.65C128.68 23.55 128.74 23.43 128.79 23.32C128.87 23.14 128.97 22.94 129.04 22.76C129.05 22.74 129.06 22.71 129.07 22.68C129.05 22.72 129.01 22.76 129 22.79C128.93 22.92 128.86 23.05 128.79 23.17ZM87.5199 0.28H87.4999C87.4999 0.28 87.5099 0.28 87.5199 0.28ZM86.6899 0.44C86.6999 0.43 86.6999 0.43 86.6999 0.43C86.6999 0.43 86.6999 0.43 86.6899 0.44ZM86.8799 0.19C86.8699 0.2 86.8699 0.2 86.8599 0.21C86.8599 0.21 86.8599 0.21 86.8499 0.22C86.8399 0.19 86.8599 0.15 86.8899 0.15C86.8999 0.15 86.8999 0.16 86.8999 0.16C86.8999 0.18 86.8799 0.18 86.8799 0.19ZM87.2599 0.12V0.13L87.2499 0.12L87.2299 0.1C87.2299 0.1 87.2299 0.09 87.2399 0.09C87.2599 0.07 87.2899 0.1 87.2899 0.13C87.2699 0.14 87.2699 0.13 87.2599 0.12Z" fill="#F03C96"/>
<path d="M117.17 10.93L117.09 11.15L116.99 11.42C116.85 11.78 116.7 12.13 116.58 12.45C116.53 12.53 116.54 12.47 116.45 12.67C116.01 13.65 115.39 14.67 114.98 15.42C115.04 15.34 115.06 15.31 115.07 15.31C115.07 15.33 115.02 15.43 115.03 15.44C114.86 15.64 114.89 15.71 114.79 15.76C114.78 15.72 114.76 15.73 114.91 15.48C114.58 15.97 114.07 16.68 113.82 17.01C113.82 17 113.75 17.06 113.69 17.14C113.76 17.13 113.46 17.5 113.22 17.76L113.17 17.78L113.03 17.97C112.93 18.07 112.89 18.05 112.66 18.32C112.65 18.34 112.65 18.36 112.61 18.41C112.32 18.65 111.94 18.98 111.63 19.24L111.4 19.48C111.3 19.57 111.12 19.67 111.16 19.62C110.68 19.99 110.33 20.19 110.18 20.33C109.65 20.59 108.99 20.87 108.29 21.09C107.59 21.31 106.84 21.44 106.17 21.5L106.21 21.52C105.85 21.56 106.02 21.49 105.77 21.51C105.89 21.53 105.49 21.56 105.78 21.58C105.26 21.62 105.11 21.53 104.78 21.51C104.73 21.48 105.05 21.54 104.99 21.5C104.96 21.49 104.78 21.49 104.6 21.48C104.42 21.45 104.24 21.42 104.2 21.39C104.07 21.39 104.16 21.43 104.23 21.46L103.92 21.39C103.53 21.38 104.78 21.61 104.37 21.61L104.08 21.56C104.03 21.56 104.02 21.57 104.04 21.57H104L104.01 21.58C103.95 21.58 103.88 21.57 103.82 21.55C103.67 21.5 103.61 21.44 103.8 21.48C103.16 21.3 103.52 21.32 102.84 21.11C102.75 21.09 102.88 21.14 103.02 21.2C103.12 21.22 103.23 21.25 103.26 21.28C103.25 21.28 103.25 21.28 103.25 21.28C102.95 21.25 102.69 21.08 102.43 20.99C102.59 21.03 102.38 20.92 102.21 20.83C101.88 20.69 102.4 20.97 101.95 20.75C101.88 20.69 101.48 20.46 101.84 20.63C101.7 20.51 101.38 20.38 101.17 20.19C101.01 20.13 101.55 20.54 101.08 20.26C101.12 20.26 100.56 19.8 100.83 19.94C100.65 19.81 100.61 19.82 100.73 19.94C100.46 19.77 100.2 19.39 100.08 19.36L100.03 19.26C99.9499 19.2 99.8499 19.1 99.7299 18.99C99.5399 18.79 99.2299 18.26 99.1999 18.3C99.1399 18.23 98.8199 17.69 98.9799 17.88C99.1899 18.21 99.1999 18.27 99.3599 18.43C99.1699 18.23 99.0399 17.96 98.9499 17.76L98.9099 17.74C98.8499 17.64 98.7399 17.42 98.6999 17.31C98.6999 17.33 98.6699 17.29 98.6299 17.22L98.6099 17.08C98.4199 16.58 98.4899 16.98 98.3299 16.5C98.3499 16.57 98.3999 16.77 98.4199 16.85C98.3799 16.77 98.3099 16.62 98.2399 16.38C98.2299 16.28 98.2199 16.09 98.2199 16C98.1699 15.75 98.1599 15.84 98.1299 15.69L98.1699 15.97C98.1799 16.03 98.0399 15.73 97.9799 15.33C97.9599 15.09 97.9399 14.72 97.9999 15.01C97.9699 14.83 97.9499 14.62 97.9299 14.75C97.9199 14.3 97.9699 14.81 97.9699 14.42C97.9199 14.27 97.9299 13.76 97.9199 13.45L97.8499 13.86L97.8599 13.59C97.7999 13.95 97.8399 13.4 97.7899 13.6C97.7899 13.41 97.8199 13.18 97.8399 13C97.8799 13.56 97.9799 12.39 98.0499 12.56C98.1999 11.82 97.9599 12.06 98.2099 11.31C98.1999 11.4 98.2599 11.27 98.2599 11.32C98.3299 11.13 98.3699 11.13 98.4599 10.71C98.3299 11.1 98.5099 10.27 98.3199 10.83C98.3499 10.79 98.2499 11.15 98.2199 11.24C98.2399 11.05 98.1499 11.26 98.2699 10.79C98.3099 10.65 98.3599 10.48 98.3999 10.35C98.4499 10.23 98.4899 10.15 98.4999 10.19C98.5199 10.21 98.3499 10.61 98.4499 10.44C98.6499 9.89002 98.6399 9.78002 98.7799 9.58002C98.6499 9.93002 98.6499 10.02 98.6799 10.03L98.8399 9.63002L98.7999 9.69002C99.0399 9.05002 98.9199 9.52002 99.1799 8.92002C99.1799 8.92002 99.1999 8.84002 99.2299 8.77002C99.2499 8.72002 99.2699 8.66002 99.2799 8.64002C99.1499 8.76002 98.8899 9.50002 98.8699 9.37002C99.0599 8.98002 99.1299 8.85002 99.3199 8.49002C99.2699 8.57002 99.2099 8.67002 99.1599 8.75002C99.1999 8.68002 99.2099 8.61002 99.2699 8.48002C99.2899 8.41002 99.3299 8.34002 99.3799 8.25002C99.3999 8.21002 99.4199 8.18002 99.4499 8.15002C99.3999 8.22002 99.3599 8.26002 99.3299 8.28002C99.3999 8.15002 99.4499 8.09002 99.5099 7.99002C99.5599 7.89002 99.5999 7.83002 99.6099 7.79002C99.6299 7.71002 99.6499 7.70002 99.5999 7.67002C99.4499 7.58002 99.2999 7.48002 99.2299 7.43002C99.1899 7.36002 99.3499 7.46002 99.4099 7.46002C98.8099 7.11002 98.3399 6.79002 98.0499 6.57002C97.8899 6.49002 97.8899 6.52002 98.0299 6.63002C97.8499 6.52002 97.6699 6.41002 97.4899 6.30002C97.4599 6.28002 97.4299 6.26002 97.3999 6.25002C97.4499 6.23002 97.3799 6.21002 97.3799 6.19002C97.3699 6.20002 97.3499 6.21002 97.3399 6.24002C97.3199 6.19002 97.3299 6.27002 97.2899 6.25002C97.2699 6.20002 97.2299 6.16002 97.1899 6.12002C97.1199 6.11002 97.0599 6.03002 97.0199 6.00002C96.9799 6.00002 96.9699 6.06002 96.9399 6.04002C96.9099 6.03002 96.9899 6.01002 96.9399 6.00002V6.01002C96.9199 6.00002 96.8499 6.00002 96.8499 5.95002L96.8399 5.98002C96.8299 5.98002 96.8299 5.96002 96.8199 5.96002C96.8099 5.96002 96.7999 5.98002 96.7999 6.00002C96.7799 6.00002 96.7699 5.99002 96.7499 5.98002C96.7399 5.96002 96.7299 5.94002 96.7099 5.94002L96.7499 5.92002C96.7099 5.87002 96.6599 5.87002 96.6099 5.83002L96.5999 5.86002L96.5799 5.82002C96.5699 5.84002 96.5499 5.85002 96.5399 5.84002V5.85002L96.4099 5.77002C96.4099 5.77002 96.3699 5.81002 96.3099 5.86002C96.3099 5.87002 96.2999 5.87002 96.2999 5.87002V5.86002C96.2899 5.87002 96.2599 5.87002 96.2599 5.85002L96.2399 5.89002L96.2199 5.86002C96.1799 5.91002 96.1299 5.91002 96.0999 5.98002L96.1299 6.00002C96.1099 6.02002 96.1099 6.08002 96.0599 6.08002C96.0599 6.06002 96.0399 6.05002 96.0299 6.04002C96.0299 6.05002 96.0299 6.07002 96.0199 6.07002L95.9999 6.01002C96.0399 6.08002 95.9499 6.10002 95.9499 6.13002L95.9399 6.12002C95.8899 6.14002 95.9699 6.13002 95.9499 6.16002C95.9199 6.17002 95.8899 6.12002 95.8599 6.13002C95.8199 6.17002 95.7899 6.27002 95.7099 6.29002C95.6899 6.33002 95.6599 6.38002 95.6499 6.43002C95.6199 6.46002 95.6099 6.39002 95.5999 6.44002C95.5899 6.42002 95.5799 6.42002 95.5599 6.41002C95.5599 6.43002 95.5099 6.46002 95.5599 6.47002C95.5399 6.49002 95.5099 6.51002 95.4899 6.54002L95.3899 6.66002C95.2799 6.79002 95.1799 6.91002 95.0699 7.04002C95.1699 6.89002 95.1699 6.86002 95.0399 6.99002C94.8199 7.31002 94.4799 7.80002 94.1099 8.31002C94.1499 8.32002 94.2599 8.15002 94.2499 8.22002C94.2099 8.30002 94.1299 8.44002 94.0399 8.57002C93.9599 8.63002 93.9099 8.56002 93.6199 9.06002C93.6199 9.04002 93.6299 9.01002 93.6399 8.98002C93.4599 9.27002 93.3599 9.35002 93.2899 9.45002C93.3299 9.36002 93.3899 9.25002 93.4399 9.17002C93.2099 9.53002 93.1699 9.67002 92.9599 10.07C92.8499 10.14 93.2799 9.43002 93.3399 9.27002L93.1299 9.52002C92.7999 10.13 93.0899 9.72002 92.7499 10.34L92.7599 10.27C92.7399 10.3 92.7099 10.38 92.6699 10.45C92.6199 10.55 92.5899 10.66 92.5899 10.66C92.6099 10.68 92.6699 10.61 92.8399 10.26C92.7799 10.51 92.6899 10.58 92.4599 11.14C92.4099 11.33 92.5599 10.9 92.5999 10.91C92.6499 10.87 92.4799 11.25 92.3699 11.52C92.1999 11.99 92.2499 11.74 92.1499 11.93C92.1799 11.84 92.2999 11.47 92.3099 11.52C92.5099 10.97 92.1599 11.68 92.2499 11.38C92.0799 11.76 92.1199 11.77 92.0599 11.99C92.1099 11.87 92.0699 12.08 92.1099 11.98C91.9299 12.77 91.8599 12.44 91.6499 13.2C91.7499 13.06 91.4599 14.23 91.6799 13.7C91.6399 13.88 91.6099 14.12 91.5599 14.31C91.5599 14.1 91.4599 14.64 91.4899 14.27L91.4299 14.55L91.4699 14.12C91.3799 14.43 91.2499 14.91 91.1999 15.1C91.1599 15.51 91.2499 14.98 91.2099 15.45C91.2099 15.3 91.1699 15.52 91.1399 15.72C91.1999 15.42 91.1899 15.81 91.1699 16.05C91.1099 16.46 91.0899 16.8 91.0699 16.74L91.0499 16.33C91.0599 16.64 91.0299 16.46 91.0299 16.78C91.0499 16.87 91.0799 17.07 91.1099 17.17C91.0999 17.43 91.0699 17.62 91.0699 17.72L91.0599 17.29C91.0499 17.85 90.9599 17.41 90.9999 17.98L91.0399 18.13C91.0399 18.22 91.0299 18.28 91.0199 18.23C91.0399 18.35 91.0499 18.62 91.0599 18.74L91.0399 18.78C91.0799 19.02 91.1099 19.31 91.1299 19.6C91.1399 19.37 91.0899 19.31 91.0899 18.9C91.1199 18.64 91.1499 19.3 91.1599 19.39C91.0999 19.37 91.2399 20 91.2899 20.29C91.2999 20.47 91.2999 20.6 91.3099 20.71L91.3599 20.81C91.3199 20.87 91.3599 21.01 91.4099 21.19C91.5099 21.31 91.6099 21.41 91.6499 21.51C91.2899 21.11 91.6699 21.59 91.7299 21.69C92.1699 22.21 91.6799 21.59 91.9999 21.95C92.1799 22.17 92.3799 22.48 92.0899 22.15C92.3399 22.45 92.6399 22.78 92.9799 23.07C93.1299 23.17 92.3899 22.49 92.5999 22.65C93.2799 23.29 92.8699 23.04 93.5099 23.65C93.2999 23.5 93.3499 23.58 93.4999 23.73C93.5799 23.8 93.6599 23.87 93.7499 23.93V23.92C93.6999 23.87 93.6799 23.84 93.7599 23.89L94.0599 24.13C94.5299 24.41 93.2199 23.35 93.6599 23.63L93.9499 23.87C93.8999 23.8 93.8599 23.74 93.9799 23.82C94.0299 23.92 94.7399 24.43 94.7899 24.47C94.8399 24.56 94.5299 24.26 94.5699 24.33C94.9199 24.61 95.0699 24.73 95.6599 25.08C95.3499 24.86 95.8099 25.12 95.6799 25.01C95.9699 25.17 95.7399 25.11 96.1699 25.32L96.1299 25.28C96.5299 25.46 96.9599 25.66 97.3999 25.86C97.8399 26.05 98.3199 26.17 98.7699 26.33C99.2199 26.51 99.6999 26.55 100.14 26.66C100.36 26.71 100.58 26.76 100.78 26.81C100.99 26.83 101.19 26.85 101.38 26.88C101.52 26.87 101.73 26.87 102.02 26.88C102.27 26.9 102.58 26.9 102.95 26.88C102.89 26.9 103.14 26.9 103.31 26.9C103.31 26.9 103.73 26.85 103.73 26.84C103.98 26.79 104.28 26.76 104.57 26.74C104.86 26.71 105.14 26.65 105.38 26.61C105.46 26.59 105.48 26.57 105.5 26.56C105.94 26.44 105.97 26.45 106.14 26.42L106.41 26.3L106.48 26.31C106.93 26.18 107.49 25.92 107.42 25.91C107.55 25.87 107.67 25.81 107.63 25.84C108.07 25.61 109.01 25.13 109.63 24.66C109.43 24.82 109.46 24.82 109.45 24.85C109.58 24.82 109.6 24.73 109.89 24.56C109.88 24.54 110.17 24.31 109.84 24.53C110.7 23.82 111.84 22.77 112.66 21.64C112.84 21.42 112.79 21.5 112.88 21.39C113.36 20.65 113.98 19.76 114.4 18.9C114.32 19.1 114.51 18.86 114.75 18.38C115.04 17.88 114.8 18.14 115 17.66C115.13 17.44 115.32 16.98 115.4 16.78C115.53 16.49 115.73 16.04 115.84 15.68L115.82 15.73C115.93 15.43 116.02 15.09 116.12 14.78C116.2 14.66 116.42 13.89 116.5 13.71C116.51 13.67 116.49 13.73 116.51 13.64L116.55 13.62L116.7 13C116.65 13.13 116.63 13.16 116.57 13.33C116.73 12.65 116.66 13.11 116.77 12.77C116.91 12.3 116.87 12.32 116.9 12.09C116.84 12.29 116.83 12.44 116.8 12.55C116.79 12.58 116.78 12.6 116.77 12.62C116.77 12.59 116.85 12.27 116.84 12.25C116.86 12.15 116.91 12.12 116.98 11.77C117.01 11.61 117.06 11.39 117.1 11.15C117.11 11.08 117.12 11 117.13 10.94C117.15 10.89 117.12 10.79 117.19 10.81C117.27 10.81 117.31 10.8 117.28 10.79H117.16C117.19 10.84 117.19 10.9 117.17 10.93ZM95.9999 6.16002C95.9999 6.15002 95.9999 6.15002 95.9999 6.16002C95.9999 6.15002 95.9999 6.15002 96.0099 6.15002C96.0099 6.15002 96.0099 6.15002 95.9999 6.16002ZM96.2399 5.92002C96.2299 5.93002 96.2299 5.93002 96.2199 5.95002C96.2099 5.94002 96.2099 5.94002 96.2099 5.94002C96.1999 5.95002 96.1999 5.96002 96.1899 5.97002C96.1799 5.94002 96.2099 5.90002 96.2399 5.92002C96.2399 5.92002 96.2399 5.93002 96.2499 5.93002C96.2399 5.92002 96.2399 5.92002 96.2399 5.92002ZM96.6299 5.89002C96.6199 5.90002 96.6199 5.90002 96.6199 5.90002L96.5799 5.88002C96.5799 5.87002 96.5799 5.87002 96.5899 5.87002C96.6099 5.85002 96.6499 5.89002 96.6399 5.92002C96.6399 5.91002 96.6399 5.90002 96.6299 5.89002ZM96.8899 6.06002L96.8699 6.05002C96.8699 6.05002 96.8799 6.05002 96.8899 6.06002Z" fill="#00AEEF"/>
<path d="M129.1 13.6101C129.1 13.4401 129.09 13.2801 129.08 13.1501C129.08 13.1601 129.07 13.1601 129.07 13.1601V12.5501C129.06 12.2801 129.06 12.0301 129.06 11.8001C129.07 11.7601 129.07 11.7101 129.06 11.6701C129.06 11.5601 129.06 11.4501 129.05 11.3501C129.05 11.3001 129.06 11.2701 129.07 11.2901C129.09 11.5101 129.06 11.5901 129.06 11.6701C129.06 11.6801 129.07 11.7001 129.07 11.7101C129.08 11.5901 129.09 11.5601 129.09 11.5501C129.08 11.3701 129.08 11.2201 129.07 11.1301C129.06 11.0601 129.06 11.0701 129.05 11.1501L129.04 10.9901V10.9101C129.03 10.8901 128.99 10.9001 128.97 10.9001H128.83C128.69 10.8901 128.56 10.8801 128.48 10.8801C128.44 10.8701 128.39 10.8701 128.34 10.8601H128.21C128.06 10.8601 127.95 10.8501 127.92 10.8401L127.91 10.8301H127.62C127.66 10.8601 127.6 10.8601 127.34 10.8601L127.05 10.8301C126.88 10.8401 126.71 10.8401 126.53 10.8401C126.52 10.8401 126.52 10.8401 126.52 10.8401C126.43 10.8601 126.53 10.8801 126.53 10.9101C126.23 10.9001 125.86 10.9001 125.73 10.8801L125.43 10.9201C125.5 10.8901 125.1 10.9001 124.98 10.8901L125.12 10.9001C125.07 10.9201 124.72 10.9101 124.54 10.9101C124.58 10.8901 124.93 10.8801 125.13 10.8701C125.04 10.8601 124.94 10.8601 124.82 10.8601C124.63 10.8601 124.44 10.8701 124.29 10.8801C124.17 10.8801 124.06 10.8901 123.95 10.8901H123.94C123.82 10.9001 123.7 10.9001 123.58 10.9001C123.53 10.9001 123.48 10.8901 123.47 10.8901C123.43 10.9001 123.4 10.9101 123.35 10.9101C123.32 10.9101 123.29 10.9101 123.25 10.9101C123.16 10.9201 123.07 10.9201 122.98 10.9201C122.83 10.9101 122.71 10.9001 122.59 10.9001L122.35 10.9101L122.33 10.8801C122.26 10.8901 122.31 10.8901 122.28 10.9001C122.14 10.8601 121.6 10.8801 121.44 10.8601H121.42C121.47 10.8901 121.38 10.8901 121.06 10.8901L120.77 10.8701C120.74 10.8701 120.71 10.8801 120.69 10.8801C120.47 10.9001 120.19 10.9001 119.97 10.8801C119.91 10.9001 120.02 10.9201 120.01 10.9401C119.62 10.9301 119.15 10.9301 118.97 10.9001L118.75 10.9201C118.73 10.9301 118.69 10.9401 118.61 10.9401H118.57C118.58 10.9401 118.58 10.9401 118.59 10.9301C118.56 10.9301 118.52 10.9301 118.46 10.9201C118.35 10.9201 118.26 10.9101 118.18 10.9101H118L118.18 10.9201C118.14 10.9301 118.02 10.9301 117.86 10.9301C117.69 10.9201 117.5 10.9201 117.37 10.9201C117.46 10.9001 117.73 10.8901 117.97 10.8801C117.95 10.8701 117.93 10.8701 117.93 10.8701C117.9 10.8601 117.86 10.8601 117.83 10.8601C117.67 10.8501 117.5 10.8501 117.33 10.8401C117.36 10.8501 117.32 10.8601 117.24 10.8601C117.17 10.8301 117.2 10.9301 117.18 10.9901C117.17 11.0601 117.16 11.1301 117.15 11.2001C117.11 11.4401 117.06 11.6701 117.03 11.8201C116.96 12.1701 116.91 12.2001 116.89 12.3001C116.91 12.3101 116.82 12.6301 116.82 12.6701C116.83 12.6601 116.84 12.6301 116.85 12.6001C116.89 12.4801 116.89 12.3301 116.95 12.1401C116.91 12.3701 116.96 12.3501 116.82 12.8201C116.71 13.1601 116.78 12.7101 116.62 13.3801C116.67 13.2001 116.7 13.1701 116.75 13.0501L116.6 13.6701L116.56 13.6901C116.54 13.7801 116.56 13.7201 116.55 13.7601C116.47 13.9401 116.26 14.7101 116.17 14.8301C116.07 15.1401 115.97 15.4901 115.87 15.7801L115.89 15.7301C115.78 16.0901 115.59 16.5401 115.45 16.8301C115.37 17.0301 115.18 17.4801 115.05 17.7101C114.85 18.1901 115.09 17.9201 114.8 18.4301C114.56 18.9001 114.37 19.1401 114.45 18.9501C114.03 19.8101 113.41 20.7001 112.93 21.4401C112.84 21.5401 112.89 21.4601 112.71 21.6901C111.89 22.8201 110.74 23.8801 109.89 24.5801C110.22 24.3501 109.93 24.5901 109.94 24.6101C109.65 24.7901 109.63 24.8701 109.5 24.9001C109.51 24.8601 109.48 24.8601 109.68 24.7101C109.06 25.1701 108.12 25.6601 107.68 25.8901C107.72 25.8601 107.6 25.9201 107.47 25.9601C107.54 25.9701 106.98 26.2301 106.53 26.3601L106.46 26.3501L106.19 26.4701C106.01 26.5101 105.99 26.4901 105.55 26.6101C105.53 26.6201 105.51 26.6401 105.43 26.6601C105.19 26.7001 104.91 26.7601 104.62 26.7901C104.33 26.8201 104.03 26.8401 103.78 26.8901C103.78 26.9001 103.36 26.9501 103.36 26.9501C103.19 26.9601 102.94 26.9501 103 26.9301C102.63 26.9501 102.32 26.9501 102.07 26.9301C101.78 26.9201 101.57 26.9201 101.43 26.9301C101.23 26.9101 101.03 26.8801 100.83 26.8601C100.62 26.8101 100.41 26.7601 100.19 26.7101C99.75 26.6001 99.27 26.5601 98.82 26.3801C98.36 26.2201 97.89 26.1001 97.45 25.9101C97.01 25.7101 96.58 25.5201 96.18 25.3301L96.22 25.3701C95.8 25.1501 96.02 25.2101 95.73 25.0601C95.85 25.1601 95.4 24.9101 95.71 25.1301C95.12 24.7801 94.96 24.6601 94.62 24.3801C94.58 24.3101 94.89 24.6101 94.84 24.5201C94.79 24.4701 94.08 23.9601 94.03 23.8701C93.91 23.7901 93.95 23.8601 94 23.9201L93.71 23.6801C93.27 23.4001 94.58 24.4601 94.11 24.1801L93.81 23.9401C93.73 23.8901 93.74 23.9101 93.8 23.9701V23.9801C93.71 23.9301 93.63 23.8601 93.55 23.7801C93.4 23.6301 93.35 23.5401 93.56 23.7001C92.92 23.1001 93.33 23.3501 92.65 22.7001C92.44 22.5401 93.18 23.2301 93.03 23.1201C92.69 22.8301 92.39 22.5101 92.14 22.2001C92.43 22.5201 92.22 22.2101 92.05 22.0001C91.72 21.6501 92.22 22.2601 91.78 21.7401C91.73 21.6401 91.34 21.1601 91.7 21.5601C91.65 21.4601 91.55 21.3601 91.46 21.2401C91.51 21.4001 91.58 21.5901 91.6 21.7401C91.54 21.5801 91.52 21.6101 91.56 21.8401C91.54 21.5301 91.75 22.3101 91.76 22.2201C91.89 22.7901 91.66 22.1001 91.66 22.2901C91.76 22.5601 91.82 22.9201 91.94 23.0801C91.91 22.9801 91.9 22.9301 91.9 22.9201C91.93 22.9601 92.02 23.1601 92.05 23.2101C92.09 23.3301 92.11 23.3901 92.11 23.4101C92.1 23.4001 92.09 23.3801 92.07 23.3701C92.07 23.3801 92.08 23.4101 92.1 23.4901C92.17 23.6901 92.3 23.9301 92.23 23.6901C92.27 23.8201 92.33 23.9501 92.39 24.0901C92.46 24.2401 92.54 24.3901 92.6 24.5601C92.62 24.7101 92.31 23.9801 92.37 24.1701C92.68 24.8401 92.61 24.4701 92.9 25.0901C92.83 24.9001 92.89 24.9501 92.98 25.0901C93.01 25.1501 93.03 25.2101 93.06 25.2701L93.04 25.2601C93.05 25.2701 93.05 25.2701 93.05 25.2801C93.04 25.2701 93.04 25.2701 93.04 25.2701C93.04 25.2801 93.04 25.2901 93.05 25.3101C93.05 25.3101 93.18 25.5801 93.19 25.5801C93.32 25.9801 92.71 24.8201 92.84 25.2001L93 25.4901C92.95 25.4401 92.89 25.3501 92.92 25.4801C92.98 25.5401 93.32 26.1401 93.35 26.1901C93.42 26.2301 93.21 25.9701 93.26 26.0001C93.45 26.3001 93.58 26.4001 93.83 26.8701C93.66 26.6301 93.85 27.0001 93.77 26.9001C93.89 27.1401 93.85 26.9501 94.05 27.2701L94.01 27.2501C94.77 28.4301 95.98 29.7201 96.93 30.4601C97.05 30.6401 97.39 30.8801 97.88 31.3001C97.87 31.2901 97.87 31.2901 97.87 31.2801C97.91 31.2901 98.03 31.3701 98.11 31.4301L98.35 31.6701C98.68 31.9101 99.15 32.1601 99.48 32.3401C99.53 32.3801 99.54 32.4001 99.55 32.4201C99.84 32.6401 99.9 32.5801 100.02 32.6401L100.22 32.7701H100.28C100.61 32.9201 101.04 33.1401 100.98 33.1601C101.1 33.2101 101.21 33.2601 101.13 33.2001C101.45 33.3601 102.21 33.6601 102.8 33.8401C102.68 33.8001 102.7 33.7701 102.69 33.7501C102.79 33.7401 102.82 33.8201 103.08 33.8501C103.08 33.8601 103.16 33.8901 103.19 33.9201C103.17 33.9201 103.13 33.9101 103.05 33.9001C103.46 34.0401 103.97 34.1901 104.5 34.3101C105.05 34.3901 105.62 34.4801 106.16 34.5601C106.38 34.5701 106.31 34.5501 106.42 34.5501C107.11 34.6201 107.96 34.6701 108.7 34.6201C108.53 34.6101 108.77 34.5401 109.17 34.5201C109.62 34.4501 109.35 34.5701 109.76 34.5701C109.96 34.5501 110.34 34.5201 110.5 34.5101L110.49 34.5201C110.73 34.4801 111.12 34.3901 111.41 34.3701L111.37 34.3801C111.61 34.3401 111.89 34.3301 112.14 34.2801C112.25 34.2301 112.86 34.1501 113 34.1001C113.03 34.0901 112.98 34.1101 113.05 34.1001L113.06 34.0601L113.55 33.9501C113.45 33.9901 113.43 34.0101 113.3 34.0501C113.82 33.9301 113.46 33.9801 113.74 33.8901C114.09 33.7701 114.08 33.8101 114.26 33.7701C114.11 33.8201 113.99 33.8401 113.9 33.8601C113.87 33.8701 113.86 33.8801 113.85 33.8901C113.89 33.8901 114.12 33.8201 114.13 33.8301C114.21 33.8101 114.23 33.7601 114.5 33.7001C114.72 33.6501 115.22 33.5101 115.22 33.5401C115.41 33.4701 115.63 33.3801 115.77 33.3201C115.59 33.3801 115.25 33.5001 115.21 33.4801C115.37 33.4201 115.7 33.2801 115.75 33.2801L115.73 33.2901C115.89 33.2301 116.11 33.1501 116.02 33.1601C116.03 33.1501 116.03 33.1501 116.03 33.1501L116.33 33.0801C116.45 33.0101 116.79 32.8801 117.07 32.7701C117.09 32.7901 116.89 32.9301 117.41 32.7301L117.83 32.4901C118.05 32.3801 118.12 32.3601 118.09 32.3901C118.7 32.1001 118.83 32.0001 119.14 31.8101C119.22 31.7701 119.32 31.7201 119.4 31.6801C119.29 31.7801 119.48 31.6801 119.72 31.5501C119.73 31.5401 119.74 31.5101 119.85 31.4401C119.93 31.4001 120.01 31.3501 120.09 31.3101C120.36 31.1801 120.7 30.9901 121.04 30.7701C121.5 30.4601 121.99 30.1201 122.41 29.8501C122.33 29.8601 122.75 29.5801 122.9 29.4301C122.89 29.5101 123.32 29.0801 123.56 28.9301L123.45 28.9701C123.58 28.8701 123.72 28.7601 123.87 28.6401C124 28.5301 124.13 28.4201 124.26 28.3001C124.51 28.1201 124.81 27.8101 125.07 27.5501C125.16 27.4901 125.49 27.1801 125.62 27.0601L125.54 27.1001C125.58 27.0501 125.64 26.9801 125.71 26.9101C125.74 26.8901 125.76 26.8701 125.76 26.8601C125.8 26.8201 125.84 26.7801 125.88 26.7401H125.87C125.91 26.7001 125.94 26.6701 125.98 26.6301C126 26.6001 126.03 26.5801 126.03 26.5701C126.06 26.5401 126.07 26.5301 126.08 26.5301C126.14 26.4701 126.2 26.4101 126.26 26.3501C126.27 26.3301 126.28 26.3201 126.28 26.3201C126.32 26.2701 126.35 26.2401 126.38 26.2101C126.45 26.1401 126.52 26.0601 126.58 25.9801C126.61 25.9401 126.65 25.9001 126.7 25.8501C126.69 25.8801 126.62 25.9801 126.55 26.0501C126.82 25.7701 127.02 25.5201 127.21 25.2601C127.26 25.2201 127.4 25.0301 127.43 25.0201C127.47 24.9701 127.53 24.9001 127.59 24.8201C127.82 24.5401 128.12 24.1301 128.35 23.8501C128.37 23.8001 128.4 23.7401 128.44 23.6801C128.48 23.6201 128.53 23.5601 128.57 23.4901C128.61 23.4401 128.64 23.3901 128.68 23.3401C128.72 23.2801 128.76 23.2301 128.8 23.1901C128.87 23.0701 128.95 22.9401 129.02 22.8101C129.03 22.7801 129.06 22.7401 129.09 22.7001C129.1 22.6901 129.1 22.6701 129.1 22.6601V22.2701C129.1 22.1801 129.1 22.0901 129.09 22.0201C129.09 21.9501 129.09 21.8701 129.1 21.8101C129.09 21.7701 129.09 21.7401 129.09 21.7101C129.09 21.7101 129.09 21.7101 129.09 21.7001C129.08 21.6501 129.09 21.4501 129.08 21.3701C129.09 21.1701 129.1 20.9801 129.1 20.7601C129.1 20.6701 129.1 20.5801 129.09 20.4901C129.1 20.4401 129.1 20.4001 129.09 20.3401C129.08 20.4301 129.08 20.5501 129.07 20.5701C129.06 20.4501 129.06 20.3701 129.06 20.3001C129.07 20.3301 129.07 20.3701 129.07 20.3901C129.09 20.1001 129.08 19.8101 129.07 19.5101C129.07 19.6401 129.07 19.7001 129.06 19.5901C129.07 19.5801 129.07 19.5501 129.07 19.5101V19.4601C129.08 19.3901 129.08 19.3001 129.08 19.2101V19.1301C129.08 19.0601 129.08 18.9901 129.09 18.9301V18.8801C129.09 18.8301 129.09 18.8001 129.08 18.7701C129.09 18.6401 129.09 18.5201 129.09 18.4001V18.3901C129.09 18.3401 129.08 18.2901 129.08 18.2501C129.09 18.0301 129.1 17.7901 129.1 17.5601C129.09 17.4901 129.09 17.4201 129.09 17.3501C129.08 17.4701 129.08 17.6401 129.07 17.6701C129.07 17.5501 129.06 17.4701 129.06 17.3901C129.07 17.4301 129.07 17.4801 129.07 17.5201C129.08 17.3501 129.08 17.1801 129.08 17.0101C129.07 16.8301 129.07 16.6501 129.07 16.4801C129.07 16.4401 129.07 16.4001 129.06 16.3601C129.06 16.5401 129.06 16.6201 129.05 16.4701C129.06 16.4601 129.06 16.4201 129.06 16.3601V16.0901L129.07 16.1001V15.8501C129.07 15.7301 129.07 15.6101 129.08 15.5301L129.1 15.5801C129.1 15.4401 129.1 15.3401 129.08 15.3701C129.09 15.2601 129.09 15.0601 129.09 14.9001C129.09 14.8901 129.09 14.8901 129.09 14.8901C129.09 14.8201 129.08 14.7501 129.08 14.7101C129.09 14.4101 129.1 14.0501 129.1 13.7401V13.6101ZM119.47 31.6501C119.48 31.6301 119.49 31.6201 119.52 31.6001C119.6 31.5601 119.68 31.5101 119.77 31.4701C119.71 31.5101 119.64 31.5801 119.47 31.6501Z" fill="#1446A0"/>
</svg>
